<svg width="363" height="329" viewBox="0 0 363 329" fill="linear-gradient(18deg, #F20544 -41.22%, #F28B30 104.41%)" xmlns="http://www.w3.org/2000/svg">
<path d="M282.08 -49.2336C248.651 -50.0347 215.124 -50.4418 181.5 -50.4418C147.864 -50.4418 114.337 -50.0347 80.908 -49.2336C37.2956 -48.1654 2.17105 -11.5548 1.15886 33.9321C0.378449 68.7752 0 103.746 0 138.805C0 173.864 0.378449 208.835 1.15886 243.678C2.17105 289.164 37.2956 325.775 80.908 326.843C114.337 327.645 147.864 328.051 181.5 328.051C208.392 328.051 235.235 327.797 262.005 327.263C301.374 256.725 256.273 157.918 174.134 153.645C135.302 148.609 93.0307 187.751 115.935 227.896C129.619 249.387 162.816 239.557 163.682 213.26C164.877 194.325 146.388 179.498 129.497 185.576C150.425 165.09 187.72 176.051 195.867 204.574C206.002 235.234 191.037 271.616 163.109 284.79C147.217 291.072 132.716 291.072 120.277 288.122C120.24 288.109 120.204 288.096 120.179 288.096C103.105 283.201 87.7865 274.172 75.5052 260.756C75.4563 260.692 75.432 260.667 75.432 260.667C64.3827 274.07 47.8082 263.973 47.8082 263.973C64.8702 254.258 58.3335 234.751 58.3335 234.751V234.738C52.0402 220.864 48.845 205.223 49.8938 188.717C53.4185 145.227 79.3714 109.163 114.459 88.2695V88.2569C72.0051 56.5038 102.166 -7.45989 102.166 -7.45989C113.593 45.4661 156.194 62.1117 174.707 66.9188C167.365 48.9758 184.891 34.1609 184.891 34.1609C185.525 60.9546 212.161 71.4075 212.161 71.4075C324.29 93.9413 359.439 251.358 276.238 326.97C278.19 326.932 280.129 326.894 282.08 326.843C325.705 325.775 360.817 289.164 361.829 243.678C362.61 208.835 363 173.864 363 138.805C363 103.746 362.61 68.7752 361.829 33.9321C360.817 -11.5548 325.705 -48.1654 282.08 -49.2336Z" fill="url(#paint0_linear_35_2205)"/>
<defs>
<linearGradient id="paint0_linear_35_2205" x1="189.688" y1="597.929" x2="409.446" y2="-56.9406" gradientUnits="userSpaceOnUse">
<stop stop-color="#F20544"/>
<stop offset="1" stop-color="#F28B30"/>
</linearGradient>
</defs>
</svg>
