<svg width="437" height="85" viewBox="0 0 437 85" fill="none" xmlns="http://www.w3.org/2000/svg">
<path d="M66.0519 0.271315C58.2241 0.0914139 50.3735 0 42.5001 0C34.6238 0 26.7732 0.0914147 18.9454 0.271315C8.73313 0.511212 0.508372 8.73304 0.271359 18.9482C0.0886175 26.7731 0 34.6266 0 42.5C0 50.3735 0.0886175 58.2269 0.271359 66.0518C0.508372 76.267 8.73313 84.4888 18.9454 84.7287C26.7732 84.9086 34.6238 85 42.5001 85C48.7971 85 55.0827 84.9429 61.3512 84.8229C70.5697 68.9819 60.0089 46.7923 40.7752 45.8328C31.6823 44.7018 21.7841 53.492 27.1473 62.5077C30.3515 67.334 38.125 65.1265 38.3278 59.2207C38.6076 54.9684 34.2782 51.6386 30.323 53.0037C35.2235 48.403 43.9565 50.8647 45.8641 57.2702C48.2374 64.1556 44.7333 72.326 38.1936 75.2846C34.4724 76.6954 31.0769 76.6954 28.164 76.0328C28.1554 76.0299 28.1469 76.0271 28.1411 76.0271C24.143 74.9276 20.5561 72.9 17.6803 69.8871C17.6688 69.8728 17.6632 69.8671 17.6632 69.8671C15.0759 72.8772 11.1948 70.6096 11.1948 70.6096C15.19 68.4278 13.6594 64.047 13.6594 64.047V64.0442C12.1857 60.9285 11.4375 57.4159 11.6831 53.709C12.5085 43.9422 18.5856 35.8432 26.8017 31.1511V31.1482C16.8607 24.0173 23.9231 9.65265 23.9231 9.65265C26.599 21.5385 36.5743 25.2767 40.9094 26.3562C39.1902 22.3267 43.294 18.9996 43.294 18.9996C43.4424 25.0168 49.6796 27.3643 49.6796 27.3643C75.9358 32.4248 84.1662 67.7767 64.684 84.7573C65.1409 84.7487 65.595 84.7401 66.0519 84.7287C76.267 84.4888 84.4889 76.267 84.7259 66.0518C84.9087 58.2269 85.0001 50.3735 85.0001 42.5C85.0001 34.6266 84.9087 26.7731 84.7259 18.9482C84.4889 8.73304 76.267 0.511212 66.0519 0.271315Z" fill="#8FADBF"/>
<path d="M150.588 22.547H140.005L130.509 40.0393H128.45V22.547H119.895V40.0393H117.72L108.018 22.547H97.4048L110.194 42.2738L96.6992 65.3522H107.4L117.044 47.4776H119.895V65.3522H128.45V47.4776H131.155L140.622 65.3522H151.294L137.976 42.2441L150.588 22.547Z" fill="#8FADBF"/>
<path d="M175.981 42.7704C173.634 40.8035 170.327 39.8152 166.051 39.8152H160.084L160.626 29.5341H152.008L150.345 61.3372H164.93C169.197 61.3372 172.608 60.349 175.164 58.3535C177.72 56.3677 179.079 53.7546 179.25 50.5239C179.421 47.3218 178.328 44.7467 175.981 42.7704ZM170.688 50.581C170.631 51.8162 170.147 52.8234 169.244 53.6121C168.341 54.3913 167.011 54.7808 165.272 54.7808H159.305L159.742 46.4096H165.709C167.448 46.4096 168.731 46.7992 169.558 47.5973C170.375 48.386 170.755 49.3837 170.688 50.581Z" fill="#8FADBF"/>
<path d="M179.94 61.3402H188.525L190.192 29.53H181.607L179.94 61.3402Z" fill="#8FADBF"/>
<path d="M197.25 43.0833C197.25 47.5132 196.956 50.5317 196.368 52.138C195.78 53.7452 194.506 54.5487 192.546 54.5487L191.634 54.5784L191.257 61.3402H193.104C197.75 61.3402 201.032 59.8657 202.953 56.9159C204.874 53.966 205.834 49.3551 205.834 43.0833V36.1748H213.478V61.3402H222.034V29.53H197.25V43.0833Z" fill="#8FADBF"/>
<path d="M256.041 29.53H232.492L231.845 42.5543C231.629 46.9443 231.203 50.0705 230.567 51.9329C229.929 53.7943 228.836 54.725 227.288 54.725H226.377V54.7547H224.349V71.8648H232.933V61.3402H251.837V71.8648H260.422V54.7547H256.041V29.53ZM247.486 54.7547H238.137C238.784 53.2849 239.288 51.5357 239.651 49.5073C240.013 47.4789 240.264 45.1609 240.401 42.5543L240.724 36.3799H247.486V54.7547Z" fill="#8FADBF"/>
<path d="M288.747 53.2265V40.0843C288.747 36.4979 287.566 33.7447 285.204 31.823C282.843 29.9031 279.751 28.9427 275.929 28.9427C271.93 28.9427 268.692 29.918 266.212 31.8675C263.733 33.818 262.562 36.135 262.699 38.8205L262.758 38.9968H271.019C271.019 37.8211 271.397 36.895 272.151 36.2186C272.906 35.5421 273.978 35.2043 275.37 35.2043C276.958 35.2043 278.153 35.6256 278.957 36.4682C279.76 37.3116 280.163 38.4966 280.163 40.0258V42.5544H275.341C270.735 42.5544 267.231 43.4118 264.831 45.1266C262.429 46.8414 261.229 49.2568 261.229 52.3738C261.229 55.3329 262.131 57.6703 263.934 59.3851C265.737 61.1009 268.305 61.9574 271.637 61.9574C273.636 61.9574 275.36 61.4479 276.811 60.4291C278.262 59.4102 279.428 58.126 280.309 56.5772C280.407 57.4207 280.569 58.2438 280.795 59.0474C281.019 59.851 281.289 60.6156 281.603 61.3403H290.159C289.669 60.0468 289.31 58.744 289.085 57.43C288.859 56.117 288.747 54.7158 288.747 53.2265ZM280.163 51.9033C279.731 52.8832 278.928 53.7452 277.752 54.4904C276.576 55.2355 275.243 55.6076 273.754 55.6076C272.519 55.6076 271.554 55.2893 270.858 54.6518C270.162 54.0152 269.814 53.1579 269.814 52.0796C269.814 50.7666 270.28 49.6596 271.21 48.7576C272.141 47.8557 273.518 47.4047 275.341 47.4047H280.163V51.9033Z" fill="#8FADBF"/>
<path d="M311.665 51.3446H311.489L303.404 29.53H292.761V61.3402H301.345V42.7594L301.523 42.7306L308.725 61.3402H314.488L321.867 42.3187L322.043 42.3483V61.3402H330.598V29.53H319.868L311.665 51.3446Z" fill="#8FADBF"/>
<path d="M353.227 61.4248C350.463 61.4248 347.989 60.9223 345.805 59.9174C343.656 58.9125 341.966 57.5344 340.738 55.783C339.51 54.0029 338.896 51.9932 338.896 49.7537C338.896 47.5142 339.51 45.5188 340.738 43.7674C341.966 41.9873 343.656 40.6092 345.805 39.633C347.989 38.6281 350.463 38.1257 353.227 38.1257C355.684 38.1257 357.867 38.542 359.778 39.3746C361.723 40.2072 363.224 41.4131 364.282 42.9922L360.546 45.0164C359.693 43.9253 358.635 43.1071 357.373 42.5616C356.11 42.016 354.711 41.7433 353.176 41.7433C351.401 41.7433 349.797 42.0735 348.364 42.7338C346.965 43.3942 345.856 44.3416 345.037 45.5762C344.253 46.7821 343.86 48.1746 343.86 49.7537C343.86 51.3615 344.253 52.7827 345.037 54.0173C345.856 55.2232 346.965 56.1563 348.364 56.8166C349.797 57.477 351.401 57.8072 353.176 57.8072C354.711 57.8072 356.11 57.5344 357.373 56.9889C358.635 56.4434 359.693 55.6251 360.546 54.5341L364.282 56.5152C363.224 58.0943 361.723 59.3145 359.778 60.1758C357.867 61.0084 355.684 61.4248 353.227 61.4248Z" fill="url(#paint0_linear_34_3004)"/>
<path d="M375.353 42.174C376.206 40.8532 377.468 39.8484 379.14 39.1593C380.812 38.4702 382.842 38.1257 385.231 38.1257V42.1309C384.958 42.1022 384.583 42.0878 384.105 42.0878C381.443 42.0878 379.345 42.7625 377.809 44.112C376.308 45.4327 375.557 47.3276 375.557 49.7968V61.1664H370.644V38.341H375.353V42.174Z" fill="url(#paint1_linear_34_3004)"/>
<path d="M425.221 38.1257C428.633 38.1257 431.329 38.9583 433.308 40.6236C435.321 42.2888 436.328 44.758 436.328 48.031V61.1664H431.414V48.5048C431.414 46.294 430.8 44.6288 429.572 43.509C428.378 42.3893 426.654 41.8294 424.402 41.8294C421.911 41.8294 419.932 42.4898 418.465 43.8105C416.998 45.1025 416.264 46.9687 416.264 49.4092V61.1664H411.351V48.5048C411.351 46.294 410.736 44.6288 409.508 43.509C408.314 42.3893 406.591 41.8294 404.339 41.8294C401.848 41.8294 399.869 42.4898 398.401 43.8105C396.934 45.1025 396.2 46.9687 396.2 49.4092V61.1664H391.287V38.341H395.996V41.7433C396.985 40.5661 398.282 39.6761 399.886 39.0732C401.489 38.4415 403.315 38.1257 405.362 38.1257C407.478 38.1257 409.354 38.4846 410.992 39.2024C412.63 39.9201 413.893 40.9681 414.78 42.3462C415.804 41.0255 417.22 39.9919 419.028 39.2454C420.871 38.4989 422.935 38.1257 425.221 38.1257Z" fill="url(#paint2_linear_34_3004)"/>
<defs>
<linearGradient id="paint0_linear_34_3004" x1="441.623" y1="33.8895" x2="343.132" y2="64.6019" gradientUnits="userSpaceOnUse">
<stop stop-color="#F20544"/>
<stop offset="1" stop-color="#F28B30"/>
</linearGradient>
<linearGradient id="paint1_linear_34_3004" x1="441.623" y1="33.8895" x2="343.132" y2="64.6019" gradientUnits="userSpaceOnUse">
<stop stop-color="#F20544"/>
<stop offset="1" stop-color="#F28B30"/>
</linearGradient>
<linearGradient id="paint2_linear_34_3004" x1="441.623" y1="33.8895" x2="343.132" y2="64.6019" gradientUnits="userSpaceOnUse">
<stop stop-color="#F20544"/>
<stop offset="1" stop-color="#F28B30"/>
</linearGradient>
</defs>
</svg>
